#!OML:ASF F:\VICON\USERDATA\INSTALL\rory3\rory3.ASF
:FULLY-SPECIFIED
:DEGREES
226
root 5.5873 18.0562 12.3223 -3.72777 -0.794121 -0.169718
lowerback 9.80376 0.781633 -1.35186
upperback 0.444405 0.925036 0.68891
thorax -5.0708 0.495657 1.34993
lowerneck -17.4541 -2.62212 -1.77532
upperneck 17.0735 -3.33688 1.00401
head 8.22276 -1.59235 0.223632
rclavicle -3.47563e-015 1.59028e-015
rhumerus -29.1304 -20.3127 -79.1006
rradius 26.721
rwrist 6.04199
rhand -17.0402 21.4476
rfingers 7.12502
rthumb 9.19651 -8.33185
lclavicle -3.47563e-015 1.59028e-015
lhumerus -34.6837 3.07602 82.421
lradius 28.0099
lwrist 1.50163
lhand -22.2841 32.3233
lfingers 7.12502
lthumb 4.1344 62.2629
rfemur -15.5539 -1.43056 22.672
rtibia 73.2488
rfoot 0.0812905 -9.46624
rtoes 3.12309
lfemur -9.11005 -3.1548 -24.4017
ltibia 27.3269
lfoot -11.4808 -0.747377
ltoes 1.46663
227
root 5.59913 18.0435 12.4917 -3.80437 -0.734644 -0.233419
lowerback 10.0065 0.660612 -1.26162
upperback 0.414565 0.774777 0.742769
thorax -5.21015 0.421129 1.3748
lowerneck -17.4188 -2.54478 -1.65945
upperneck 17.0463 -3.23873 0.892366
head 8.20194 -1.55024 0.180006
rclavicle -2.62458e-015 7.7526e-015
rhumerus -29.4567 -20.6418 -78.9094
rradius 26.3856
rwrist 5.96363
rhand -16.9422 20.3086
rfingers 7.12502
rthumb 9.29114 -9.46664
lclavicle -2.62458e-015 7.7526e-015
lhumerus -34.3391 2.45791 82.5933
lradius 27.6737
lwrist 2.62656
lhand -24.953 27.9264
lfingers 7.12502
lthumb 1.55696 57.9005
rfemur -16.753 -1.442 22.7077
rtibia 73.3725
rfoot 0.22512 -8.4071
rtoes 9.46266
lfemur -8.3562 -3.00864 -24.4418
ltibia 27.1867
lfoot -11.7753 -0.645023
ltoes 0.115477
228
root 5.60748 18.0348 12.6632 -3.90813 -0.646848 0.0913817
lowerback 10.1 0.561333 -1.56367
upperback 0.481925 0.604711 0.699544
thorax -5.1889 0.343341 1.52416
lowerneck -17.5706 -2.49793 -1.78798
upperneck 17.1144 -3.16961 1.04277
head 8.25555 -1.50934 0.257427
rclavicle -2.41337e-015 -7.95139e-016
rhumerus -29.5709 -20.9884 -78.7537
rradius 25.9544
rwrist 5.39487
rhand -16.2082 18.778
rfingers 7.12502
rthumb 9.99934 -10.9645
lclavicle -2.41337e-015 -7.95139e-016
lhumerus -34.0756 1.27681 83.1187
lradius 27.4917
lwrist 6.17609
lhand -29.2838 19.4807
lfingers 7.12502
lthumb -2.62575 49.4443
rfemur -17.7742 -1.51338 22.2708
rtibia 73.31
rfoot -0.849736 -7.42557
rtoes 10.749
lfemur -7.63781 -2.9467 -24.9158
ltibia 27.202
lfoot -11.9573 -0.453493
ltoes -0.570561
229
root 5.61764 18.0313 12.8312 -4.06519 -0.708834 0.445654
lowerback 10.1098 0.536414 -1.9025
upperback 0.644686 0.531211 0.662968
thorax -5.02384 0.311601 1.68796
lowerneck -17.6338 -2.4372 -1.74549
upperneck 17.0226 -3.08055 0.972848
head 8.23256 -1.47162 0.2378
rclavicle 7.11587e-015 3.97569e-015
rhumerus -29.5102 -21.4993 -78.5175
rradius 25.6361
rwrist 5.23823
rhand -15.5792 19.0135
rfingers 7.12502
rthumb 10.6061 -10.6988
lclavicle 7.11587e-015 3.97569e-015
lhumerus -33.7364 0.350929 83.4068
lradius 27.6361
lwrist 7.78448
lhand -30.2404 16.0656
lfingers 7.12502
lthumb -3.54958 46.0158
rfemur -18.7412 -1.4448 21.8016
rtibia 73.0662
rfoot -2.41232 -6.56643
rtoes 9.45626
lfemur -6.85127 -2.91435 -25.4017
ltibia 27.2717
lfoot -12.4494 -0.260394
ltoes 0.670747
230
root 5.62573 18.0216 12.985 -3.91737 -0.769642 0.293294
lowerback 10.0286 0.450017 -1.79885
upperback 0.677576 0.435655 0.778702
thorax -4.93984 0.26226 1.76429
lowerneck -17.8284 -2.31178 -1.82708
upperneck 17.1215 -2.91437 1.11864
head 8.30142 -1.38186 0.317711
rclavicle -1.52816e-015 -7.95139e-016
rhumerus -29.6312 -21.7984 -78.3451
rradius 25.72
rwrist 5.64404
rhand -15.6745 20.04
rfingers 7.12502
rthumb 10.5141 -9.67703
lclavicle -1.52816e-015 -7.95139e-016
lhumerus -33.1527 0.130914 83.3331
lradius 27.7744
lwrist 7.38651
lhand -29.1353 17.4719
lfingers 7.12502
lthumb -2.48237 47.4372
rfemur -20.1768 -1.268 22.0088
rtibia 72.6622
rfoot -3.84916 -6.09413
rtoes 8.58399
lfemur -6.47469 -2.78903 -25.2648
ltibia 27.3048
lfoot -12.9991 -0.273538
ltoes 1.77688
231
root 5.63004 18.0014 13.1451 -3.80013 -0.728847 0.490893
lowerback 10.0984 0.389446 -2.06633
upperback 0.60808 0.325158 0.814738
thorax -5.04871 0.215903 1.9686
lowerneck -17.9685 -2.28208 -1.95486
upperneck 17.2874 -2.86146 1.22765
head 8.38503 -1.35275 0.379558
rclavicle -5.6343e-015 -5.56597e-015
rhumerus -30.0293 -22.022 -78.0463
rradius 25.6681
rwrist 5.71681
rhand -15.9824 21.816
rfingers 7.12502
rthumb 10.2171 -7.91584
lclavicle -5.6343e-015 -5.56597e-015
lhumerus -32.8403 0.207979 83.0405
lradius 28.5457
lwrist 5.37734
lhand -26.8215 22.4659
lfingers 7.12502
lthumb -0.247639 52.4455
rfemur -21.4617 -1.17241 21.8063
rtibia 72.1746
rfoot -5.2081 -5.69828
rtoes 8.49577
lfemur -6.12881 -2.6482 -25.5354
ltibia 27.4343
lfoot -13.2578 -0.123818
ltoes 0.266467
232
root 5.63685 17.9858 13.3271 -3.90877 -0.675165 0.599196
lowerback 10.1162 0.312913 -2.14128
upperback 0.636472 0.21479 0.818047
thorax -5.02372 0.162587 2.03016
lowerneck -17.7607 -2.31054 -1.82688
upperneck 17.1281 -2.89577 1.0292
head 8.29001 -1.3829 0.290669
rclavicle -1.85739e-015 -8.34896e-015
rhumerus -30.4582 -22.4994 -77.7411
rradius 25.331
rwrist 5.57127
rhand -16.4058 24.8835
rfingers 7.12502
rthumb 9.8087 -4.86804
lclavicle -1.85739e-015 -8.34896e-015
lhumerus -32.6119 -0.138612 82.8562
lradius 29.2483
lwrist 4.2348
lhand -26.6024 23.4127
lfingers 7.12502
lthumb -0.0360556 53.3924
rfemur -22.1876 -1.19825 21.658
rtibia 71.5011
rfoot -6.5434 -5.37781
rtoes 7.64783
lfemur -5.49143 -2.43215 -25.7464
ltibia 27.6881
lfoot -13.5907 -0.0717199
ltoes -0.0851236
233
root 5.64521 17.9702 13.4976 -4.06173 -0.613733 0.688289
lowerback 10.3663 0.23102 -2.20163
upperback 0.621111 0.0944952 0.833379
thorax -5.17388 0.106861 2.09834
lowerneck -17.5535 -2.30262 -1.83937
upperneck 17.0482 -2.88605 1.03567
head 8.22685 -1.37977 0.298637
rclavicle 7.19352e-015 8.94531e-015
rhumerus -30.9293 -22.5278 -77.5622
rradius 25.226
rwrist 5.27814
rhand -16.7428 27.4259
rfingers 7.12502
rthumb 9.4835 -2.3407
lclavicle 7.19352e-015 8.94531e-015
lhumerus -32.326 -0.592718 82.9213
lradius 29.4439
lwrist 4.70174
lhand -27.6034 20.889
lfingers 7.12502
lthumb -1.00285 50.8664
rfemur -22.9366 -1.25401 21.5532
rtibia 70.6844
rfoot -7.78181 -5.21698
rtoes 5.59436
lfemur -4.73968 -2.34893 -25.9272
ltibia 27.8703
lfoot -14.3213 -0.124423
ltoes 1.37863
234
root 5.65064 17.9551 13.6454 -3.88193 -0.387507 0.769063
lowerback 10.5235 0.105624 -2.32152
upperback 0.530822 -0.0862017 0.906334
thorax -5.34705 0.0248568 2.27041
lowerneck -17.8222 -2.29623 -1.93354
upperneck 17.3231 -2.85521 1.05891
head 8.3682 -1.36711 0.32149
rclavicle -1.09394e-014 -2.18663e-015
rhumerus -31.1431 -22.4666 -77.3688
rradius 25.1538
rwrist 5.20742
rhand -17.1263 27.8149
rfingers 7.12502
rthumb 9.1135 -1.96817
lclavicle -1.09394e-014 -2.18663e-015
lhumerus -31.9597 -1.10424 83.0297
lradius 29.7774
lwrist 5.11024
lhand -26.4412 23.0788
lfingers 7.12502
lthumb 0.119597 53.0585
rfemur -24.1691 -1.46483 21.4712
rtibia 69.7233
rfoot -8.67297 -5.2132
rtoes 4.26531
lfemur -4.45648 -2.36768 -26.0542
ltibia 27.9624
lfoot -14.6944 -0.208896
ltoes 1.76616
235
root 5.64749 17.9446 13.7991 -3.60969 -0.346387 0.703634
lowerback 10.366 0.0202657 -2.39827
upperback 0.543103 -0.19906 1.01863
thorax -5.23889 -0.02932 2.44699
lowerneck -17.677 -2.28297 -1.82935
upperneck 16.9013 -2.82861 0.895927
head 8.19595 -1.36613 0.256703
rclavicle -1.17283e-014 -4.37326e-015
rhumerus -31.1101 -22.5045 -77.3294
rradius 25.0222
rwrist 5.21283
rhand -17.3568 27.549
rfingers 7.12502
rthumb 8.89101 -2.24365
lclavicle -1.17283e-014 -4.37326e-015
lhumerus -31.2363 -1.08102 82.7664
lradius 29.8635
lwrist 4.5099
lhand -25.7811 22.9385
lfingers 7.12502
lthumb 0.757157 52.9169
rfemur -25.4654 -1.38694 21.6424
rtibia 68.574
rfoot -9.30908 -5.43095
rtoes 2.50411
lfemur -4.22316 -2.36893 -26.0221
ltibia 27.9435
lfoot -15.0145 0.0103235
ltoes 0.546263
236
root 5.64876 17.9289 13.9659 -3.62487 -0.433298 1.11342
lowerback 10.4054 0.0156366 -2.89543
upperback 0.602475 -0.268628 0.93904
thorax -5.19288 -0.0542951 2.65481
lowerneck -17.5002 -2.2403 -1.68556
upperneck 16.5368 -2.80017 0.861234
head 8.03961 -1.34838 0.228857
rclavicle 1.46976e-014 1.11319e-014
rhumerus -31.3357 -22.4141 -77.3804
rradius 25.0941
rwrist 4.93436
rhand -17.3207 27.7193
rfingers 7.12502
rthumb 8.92588 -2.07194
lclavicle 1.46976e-014 1.11319e-014
lhumerus -30.858 -1.33936 82.5114
lradius 30.2377
lwrist 4.40299
lhand -26.9816 19.8501
lfingers 7.12502
lthumb -0.402352 49.8295
rfemur -26.3889 -1.20413 21.1953
rtibia 67.2926
rfoot -10.1419 -5.54392
rtoes 0.797135
lfemur -3.44924 -2.34331 -26.5559
ltibia 27.8309
lfoot -15.6455 0.447083
ltoes 0.832893
237
root 5.65935 17.9122 14.1238 -3.59215 -0.218469 1.66551
lowerback 10.6714 -0.102286 -3.37029
upperback 0.573598 -0.496802 0.827776
thorax -5.35425 -0.153222 2.84356
lowerneck -17.5556 -2.21859 -1.87956
upperneck 16.5094 -2.76626 1.10118
head 8.04628 -1.31987 0.344032
rclavicle -4.33599e-015 -6.36111e-015
rhumerus -31.4796 -22.6367 -77.1728
rradius 24.8543
rwrist 5.21212
rhand -17.703 27.0488
rfingers 7.12502
rthumb 8.55693 -2.75783
lclavicle -4.33599e-015 -6.36111e-015
lhumerus -30.5625 -1.61063 82.4087
lradius 30.7287
lwrist 4.55619
lhand -26.7761 20.519
lfingers 7.12502
lthumb -0.203794 50.4987
rfemur -27.2728 -1.43145 20.4754
rtibia 65.8576
rfoot -10.7608 -5.50354
rtoes -1.34828
lfemur -2.78627 -2.11399 -27.2379
ltibia 27.6043
lfoot -15.8354 0.437856
ltoes 0.224339
238
root 5.66225 17.8965 14.2764 -3.49483 -0.0039382 1.63131
lowerback 10.8701 -0.221491 -3.30936
upperback 0.584364 -0.65037 0.89814
thorax -5.4427 -0.227797 2.90893
lowerneck -17.6578 -2.23837 -2.14842
upperneck 16.4429 -2.76658 1.33704
head 8.04957 -1.31248 0.465689
rclavicle 5.2181e-016 4.77083e-015
rhumerus -31.484 -23.0124 -76.9188
rradius 24.5112
rwrist 5.59141
rhand -18.251 24.9698
rfingers 7.12502
rthumb 8.02806 -4.85769
lclavicle 5.2181e-016 4.77083e-015
lhumerus -29.805 -1.6969 82.2855
lradius 30.7028
lwrist 4.48892
lhand -24.9238 23.8917
lfingers 7.12502
lthumb 1.58519 53.8656
rfemur -28.0786 -1.56689 20.5195
rtibia 64.1984
rfoot -10.9966 -5.85259
rtoes -5.07516
lfemur -2.255 -1.99318 -27.2372
ltibia 27.3314
lfoot -15.866 0.349442
ltoes -0.448847
